<?xml version="1.0" encoding="UTF-8"?>
<svg id="Laag_2" data-name="Laag 2" xmlns="http://www.w3.org/2000/svg" viewBox="0 0 659.02 264.19">
  <g id="Laag_1-2" data-name="Laag 1">
    <path d="M103.22,5.64v90.57h47.54v34.39h-86.63V5.64h39.08Z"/>
    <path d="M157.91,85.12c0-27.25,16.54-54.68,50.17-54.68,20.48,0,34.95,9.77,34.95,31.76,0,25.74-27.06,32.51-46.41,34.39,1.5,5.64,6.76,9.21,14.84,9.21s15.97-3.2,22.93-7.71l9.58,24.8c.37-.19-15.03,10.71-38.33,10.71-34.39,0-47.73-19.92-47.73-48.48ZM210.71,61.82c0-3.01-1.88-5.07-4.89-5.07-5.26,0-10.52,5.07-11.09,17.48,10.15-.94,15.97-6.95,15.97-12.4Z"/>
    <path d="M252.81,98.28V33.45h38.15v61.63c0,7.14,1.13,9.02,4.32,9.02,6.95,0,8.08-12.4,8.08-25.74s-3.01-44.36-6.39-57.7h37.21c3.76,12.97,6.39,43.79,6.39,57.32,0,37.39-17.66,55.06-49.61,55.06-26.31,0-38.15-11.65-38.15-34.76Z"/>
    <path d="M465.48,33.45h31.19l2.07,8.83c5.45-7.14,13.53-11.84,26.31-11.84,18.04,0,30.07,9.96,30.07,33.45v66.71h-37.96v-60.88c0-6.58-.38-10.34-4.51-10.34-4.89,0-6.95,3.57-6.95,10.34v60.88h-37.58V54.68l-2.63-21.23Z"/>
    <path d="M565.63,87.56c0-32.88,16.72-57.12,48.48-57.12,2.63,0,4.32.19,5.07.19V0h37.39v108.8l2.44,21.8h-31.38l-2.07-8.08h-1.13c-2.25,5.07-9.96,11.28-21.05,11.28-33.07,0-37.77-25.93-37.77-46.23ZM619.19,100.15v-43.03c-.94-.19-1.69-.19-2.44-.19-12.03,0-13.53,15.6-13.53,27.81s1.88,21.99,9.02,21.99c3.95,0,6.95-3.38,6.95-6.58Z"/>
    <path d="M47.92,137.83c30.63,0,49.42,14.09,49.42,40.59,0,29.5-22.17,43.11-53.18,43.11h-5.07v39.65l-39.08,1.61v-124.96h47.92ZM57.12,180.49c0-8.27-3.57-12.21-10.71-12.21h-7.33v24.61h3.01c9.4,0,15.03-2.25,15.03-12.4Z"/>
    <path d="M184.7,200.22c0,29.63-18.41,45.81-41.31,45.81s-38.6-13.78-38.6-42.93c0-33.79,22.74-43.62,40.84-43.62,13.28,0,39.07,2.63,39.07,40.73Z"/>
    <path d="M197,165.64h30.25l3.01,12.97c5.45-12.78,14.84-15.97,21.42-15.97,4.89,0,11.09.94,15.6,3.57l-4.7,31.76c-4.13-1.88-8.83-3.38-13.72-3.38-6.58,0-11.09,2.63-11.09,9.96v56.64h-37.96v-75.24l-2.82-20.29Z"/>
    <path d="M275.55,225.29v-81.79h38.14v22.15h22.36v29.31h-22.36v28.45c0,9.4,4.89,12.4,10.34,12.4,2.63,0,5.64-.94,8.64-2.63l7.89,24.05c-6.01,3.76-17.29,6.95-28.94,6.95-34.01,0-36.08-20.29-36.08-38.9Z"/>
    <path d="M347.92,165.64h30.25l3.01,12.97c5.45-12.78,14.84-15.97,21.42-15.97,4.89,0,11.09.94,15.6,3.57l-4.7,31.76c-4.13-1.88-8.83-3.38-13.72-3.38-6.58,0-11.09,2.63-11.09,9.96v56.64h-37.96v-75.24l-2.82-20.29Z"/>
    <path d="M418.39,215.7c0-27.25,16.54-53.07,50.17-53.07,20.48,0,34.95,9.77,34.95,31.76,0,25.74-27.06,30.89-46.41,32.77,1.5,5.64,6.76,9.21,14.84,9.21s15.97-3.2,22.93-7.71l9.58,24.8c.37-.19-15.03,10.71-38.33,10.71-34.39,0-47.73-19.92-47.73-48.48ZM471.19,194.02c0-3.01-1.88-5.07-4.89-5.07-5.26,0-10.52,5.07-11.09,17.48,10.15-.94,15.97-6.95,15.97-12.4Z"/>
    <path d="M517.15,225.29v-108.24h37.95v48.59h22.51v29.31h-22.51v28.45c0,9.4,4.89,12.4,10.34,12.4,2.63,0,5.64-.94,8.64-2.63l7.89,24.05c-6.01,3.76-17.14,6.95-28.79,6.95-34.01,0-36.03-20.29-36.03-38.9Z"/>
    <path d="M99.99,262.79l4.08-3.8c21.87-20.36,55.4-16.29,76.39-.31l4.24,3.64-84.71.47Z"/>
    <path d="M460.24,65.58c-3.83-26.87-18.29-39.19-44.19-39.19-36.24,0-79.9,26.81-65.19,72.83.61,1.91,1.44,3.73,2.46,5.42.56.93,1.04,1.91,1.51,2.89,4.16,8.81,26.35,30.06,87.94,26.76,2.73-.15,3.84-3.6,1.7-5.3l-13.87-6.34c-2.18-1.73-1.64-5.2.98-6.14,18.96-6.8,32.81-21.94,28.68-50.93Z"/>
  </g>
</svg>